# xmcd CD database file
#
# Track frame offsets:
#	150
#	12515
#	26205
#	37447
#	52462
#	67497
#	80777
#	92427
#	102785
#	115902
#	130515
#	145382
#
# Disc length: 2118 seconds
#
# Revision: 0
# Processed by: cddbd v1.5.2PL0 Copyright (c) Steve Scherf et al.
# Submitted via: CDex 1.51
#
DISCID=b908440c
DTITLE=Odoardo Spadaro - Spadaro A Sorpresa
DYEAR=1995
DGENRE=Jazz
TTITLE0=Vieni A Dixieland
TTITLE1=Ninna Nanna Delle Dodici Mamme
TTITLE2=Mi Ami Memy A Miami
TTITLE3=Firenze
TTITLE4=La Cavalcata Dei Cinque
TTITLE5=Donne C'E  L'Ortolano
TTITLE6=Canzone Cinese
TTITLE7=Uh!
TTITLE8=Fra Tanti Gusti
TTITLE9=Avventura Esotica
TTITLE10=Rumba Fiorentina
TTITLE11=Qualche Filo Bianco
EXTD=YEAR: 1995
EXTT0=
EXTT1=
EXTT2=
EXTT3=
EXTT4=
EXTT5=
EXTT6=
EXTT7=
EXTT8=
EXTT9=
EXTT10=
EXTT11=
PLAYORDER=
